<svg id="visual" viewBox="0 0 900 600" width="900" height="600" xmlns="http://www.w3.org/2000/svg" xmlns:xlink="http://www.w3.org/1999/xlink" version="1.1"><rect x="0" y="0" width="900" height="600" fill="#FFFFFF"></rect><defs><linearGradient id="grad1_0" x1="33.3%" y1="0%" x2="100%" y2="100%"><stop offset="20%" stop-color="#ffffff" stop-opacity="1"></stop><stop offset="80%" stop-color="#ffffff" stop-opacity="1"></stop></linearGradient></defs><defs><linearGradient id="grad2_0" x1="0%" y1="0%" x2="66.7%" y2="100%"><stop offset="20%" stop-color="#ffffff" stop-opacity="1"></stop><stop offset="80%" stop-color="#ffffff" stop-opacity="1"></stop></linearGradient></defs><g transform="translate(900, 0)"><path d="M0 486.7C-88.3 475.9 -176.6 465 -243.4 421.5C-310.1 378.1 -355.3 302.2 -392.3 226.5C-429.3 150.8 -458 75.4 -486.7 0L0 0Z" fill="#e9f8ff"></path></g><g transform="translate(0, 600)"><path d="M0 -486.7C86.3 -474.7 172.7 -462.7 243.4 -421.5C314.1 -380.4 369.1 -310.1 407 -235C445 -159.9 465.9 -79.9 486.7 0L0 0Z" fill="#e9f8ff"></path></g></svg>