<svg id="visual" viewBox="0 0 900 600" width="900" height="600" xmlns="http://www.w3.org/2000/svg" xmlns:xlink="http://www.w3.org/1999/xlink" version="1.1"><rect x="0" y="0" width="900" height="600" fill="#FFFFFF"></rect><path d="M0 44L30 49.7C60 55.3 120 66.7 180 71.5C240 76.3 300 74.7 360 73.7C420 72.7 480 72.3 540 67.7C600 63 660 54 720 62.5C780 71 840 97 870 110L900 123L900 0L870 0C840 0 780 0 720 0C660 0 600 0 540 0C480 0 420 0 360 0C300 0 240 0 180 0C120 0 60 0 30 0L0 0Z" fill="#e9f8ff" stroke-linecap="round" stroke-linejoin="miter"></path></svg>